<svg width="30" height="30" viewBox="0 0 30 30" fill="none" xmlns="http://www.w3.org/2000/svg">
<path fill-rule="evenodd" clip-rule="evenodd" d="M27.364 10.0501C27.7545 9.65962 27.7545 9.02646 27.364 8.63593C26.9734 8.24541 26.3403 8.24541 25.9497 8.63593L21 13.5857L16.0503 8.63593C15.6597 8.24541 15.0266 8.24541 14.636 8.63593C14.2455 9.02646 14.2455 9.65962 14.636 10.0501L19.5858 14.9999L14.636 19.9496C14.2455 20.3402 14.2455 20.9733 14.636 21.3639C15.0266 21.7544 15.6597 21.7544 16.0503 21.3639L21 16.4141L25.9497 21.3639C26.3403 21.7544 26.9734 21.7544 27.364 21.3639C27.7545 20.9733 27.7545 20.3402 27.364 19.9496L22.4142 14.9999L27.364 10.0501Z" fill="#8CE2EF"/>
</svg>
