<svg width="375" height="175" viewBox="0 0 375 175" fill="none" xmlns="http://www.w3.org/2000/svg">
<g clip-path="url(#clip0_2_6071)">
<path d="M231.9 60.4663H217.398V55.7137C217.398 47.7476 223.896 41.28 231.9 41.28H231.9V60.4663V60.4663Z" fill="#2F2E41"/>
<path d="M228.686 51.5941L231.179 62.7563L216.568 60.3416L222.522 49.7849L228.686 51.5941Z" fill="#D5A790"/>
<path opacity="0.1" d="M228.686 51.5941L231.179 62.7563L216.568 60.3416L222.522 49.7849L228.686 51.5941Z" fill="#E3B79C"/>
<path d="M214.677 96.0737H228.686V75.439H214.677V96.0737Z" fill="#D6A991"/>
<path d="M237.792 112.944L234.71 129.396C234.71 129.396 236.671 140.829 230.787 152.54L226.865 164.531L220.981 163.694C220.981 163.694 224.623 154.771 224.623 150.867C224.623 146.963 225.464 131.906 225.464 131.906L225.044 114.724L237.792 112.944Z" fill="#080E0E"/>
<path d="M220.14 163.415C220.14 163.415 226.865 160.906 227.425 164.531L227.145 166.204C227.145 166.204 229.666 173.733 226.024 174.291C222.382 174.848 219.02 175.685 218.74 174.012C218.459 172.339 218.464 170.25 219.162 168.785C219.86 167.319 220.14 163.415 220.14 163.415Z" fill="#2F2E41"/>
<path d="M216.582 110.392L214.945 127.048C214.945 127.048 209.867 137.487 212.246 150.365L212.663 162.968L218.548 163.793C218.548 163.793 217.543 154.214 218.634 150.464C219.725 146.714 223.125 132.018 223.125 132.018L228.33 115.63L216.582 110.392V110.392Z" fill="#080E0E"/>
<path d="M219.433 163.758C219.433 163.758 213.676 159.486 212.124 162.813L211.926 164.498C211.926 164.498 207.4 171.031 210.743 172.575C214.086 174.119 217.081 175.853 217.818 174.324C218.555 172.794 219.134 170.787 218.873 169.186C218.612 167.585 219.433 163.758 219.433 163.758V163.758Z" fill="#2F2E41"/>
<path d="M234.429 86.5928C241.019 92.7128 241.508 102.396 237.651 113.92C237.651 113.92 225.324 122.285 216.358 111.689L211.875 90.2178L234.429 86.5928Z" fill="#080E0E"/>
<path d="M223.363 56.7562L230.367 57.8716L229.807 75.439L237.652 91.0544L227.565 96.0737C227.565 96.0737 219.72 81.2948 218.319 72.0928C216.919 62.8908 217.759 56.1985 217.759 56.1985L223.363 56.7562Z" fill="#DFE2E8"/>
<path d="M218.039 57.3138L211.035 58.4292L211.595 75.9966L209.914 92.1697L213.837 96.6313C213.837 96.6313 221.681 81.8524 223.082 72.6504C224.483 63.4484 223.643 56.7561 223.643 56.7561L218.039 57.3138Z" fill="#D6D9DE"/>
<path d="M226.444 57.7321L227.985 57.3138C227.985 57.3138 233.449 56.6167 234.289 58.8475C235.13 61.0783 234.85 74.1841 234.85 74.1841C234.85 74.1841 236.295 90.2694 230.669 90.4528C225.044 90.6361 226.164 77.2514 226.164 77.2514L226.444 57.7321Z" fill="#DFE2E8"/>
<path d="M226.241 54.6576C230.246 54.6576 233.492 51.4265 233.492 47.4407C233.492 43.455 230.246 40.2239 226.241 40.2239C222.236 40.2239 218.99 43.455 218.99 47.4407C218.99 51.4265 222.236 54.6576 226.241 54.6576Z" fill="#ECC4AA"/>
<path d="M217.199 58.29L215.658 57.8717C215.658 57.8717 210.194 57.1746 209.354 59.4053C208.513 61.6361 208.793 74.742 208.793 74.742C208.793 74.742 207.348 90.8273 212.974 91.0106C218.599 91.194 217.479 77.8093 217.479 77.8093L217.199 58.29Z" fill="#A1A1A1"/>
<path d="M222.052 57.3729C220.497 56.9801 218.733 58.6337 218.112 61.0672C217.851 62.036 217.827 63.0529 218.041 64.0329L217.373 66.7992L217.324 66.7966L212.051 79.1631C210.826 82.0385 210.955 85.3395 212.519 88.0478C213.449 89.6589 214.67 90.742 216.104 89.6363C218.483 87.8018 220.036 77.2976 220.746 71.2636L222.386 65.1301C223.045 64.3703 223.511 63.4646 223.745 62.4888C224.366 60.0562 223.608 57.7657 222.052 57.3729V57.3729Z" fill="#D6A991"/>
<path d="M212.358 53.2791C212.727 52.163 213.455 51.1858 213.781 50.0564C214.214 48.5569 215.135 51.8835 215.224 50.326C215.395 47.3655 219.935 39.7503 222.527 38.2876C225.118 36.8248 226.607 37.2658 229.247 38.6396C229.247 38.6396 230.529 38.7207 232.125 39.5048C233.72 40.2888 235.157 41.5445 235.777 43.2044C236.269 44.5201 236.215 45.9649 236.379 47.3592C236.837 51.2435 239.025 54.9377 238.555 58.8206C238.409 60.0321 237.946 61.2848 236.951 61.9974C235.956 62.7099 234.348 62.6324 233.693 61.601C233.469 61.2491 233.375 60.8315 233.183 60.4614C232.991 60.0912 232.645 59.7461 232.227 59.7576C231.598 59.7749 231.278 60.6144 231.526 61.1896C231.774 61.7648 232.357 62.1121 232.904 62.421C231.601 63.0042 229.985 62.8226 228.846 61.9649C227.707 61.1073 227.092 59.6092 227.302 58.203C227.597 56.2215 230.497 56.6316 230.839 54.6575C231.088 53.2204 231.961 50.8158 231.723 49.3769C231.486 47.938 230.343 49.6802 231.547 48.8488C230.222 49.4842 227.39 45.1374 226.003 44.6505C224.617 44.1636 223.441 43.1094 222.811 41.7876C221.34 43.9091 220.047 43.333 219.52 45.8565C218.994 48.38 219.48 54.1131 221.649 55.5219C220.781 56.1112 220.089 56.954 219.682 57.9178C219.451 58.4639 219.302 59.0613 218.919 59.5148C218.188 60.381 216.838 60.4337 215.761 60.0695C214.427 59.6179 213.286 58.6261 212.657 57.3708C212.028 56.1155 211.918 54.6117 212.358 53.2792L212.358 53.2791Z" fill="#2F2E41"/>
<path d="M114 174.596C114 174.781 114.149 174.928 114.333 174.928H260.667C260.851 174.928 261 174.781 261 174.596C261 174.412 260.851 174.265 260.667 174.265H114.333C114.149 174.265 114 174.412 114 174.596Z" fill="#3F3D56"/>
<path d="M209.271 0.278809H151.647C145.112 0.278809 139.815 5.55098 139.815 12.0545V162.753C139.815 169.256 145.112 174.529 151.647 174.529H209.271C215.805 174.529 221.102 169.256 221.102 162.753V12.0545C221.102 5.55098 215.805 0.278809 209.271 0.278809H209.271Z" fill="white"/>
<path d="M209.27 174.807H151.647C144.968 174.807 139.535 169.4 139.535 162.753V12.0546C139.535 5.40771 144.968 0 151.647 0H209.27C215.949 0 221.382 5.40771 221.382 12.0546V162.753C221.382 169.4 215.949 174.807 209.27 174.807H209.27ZM151.647 0.557695C145.277 0.557695 140.095 5.71515 140.095 12.0546V162.753C140.095 169.092 145.277 174.25 151.647 174.25H209.27C215.64 174.25 220.822 169.092 220.822 162.753V12.0546C220.822 5.71515 215.64 0.557695 209.27 0.557695H151.647Z" fill="#3F3D56"/>
<path d="M135.054 26.3696C134.548 26.3696 134.136 26.7791 134.136 27.2826V34.586C134.136 35.0895 134.548 35.4989 135.054 35.4989C135.559 35.4989 135.971 35.0895 135.971 34.586V27.2826C135.971 26.7791 135.559 26.3696 135.054 26.3696Z" fill="#3F3D56"/>
<path d="M213.444 24.3885H190.283C189.3 24.3885 188.501 23.593 188.501 22.6153C188.501 21.6375 189.3 20.842 190.283 20.842H213.444C214.427 20.842 215.226 21.6375 215.226 22.6153C215.226 23.593 214.427 24.3885 213.444 24.3885Z" fill="#E6E6E6"/>
<path d="M191.716 38.3328H169.202C168.634 38.3328 168.172 37.8732 168.172 37.3083C168.172 36.7434 168.634 36.2839 169.202 36.2839H191.716C192.284 36.2839 192.745 36.7434 192.745 37.3083C192.745 37.8732 192.284 38.3328 191.716 38.3328V38.3328Z" fill="#A1A1A1"/>
<path d="M135.944 43.389C145.986 43.389 154.127 35.4575 154.127 25.6734C154.127 15.8893 145.986 7.95776 135.944 7.95776C125.902 7.95776 117.761 15.8893 117.761 25.6734C117.761 35.4575 125.902 43.389 135.944 43.389Z" fill="#8CE2EF"/>
<path d="M144.135 19.0003C142.231 22.4512 136.646 29.1589 134.741 32.6098C133.528 30.4757 129.157 23.7253 127.94 21.5928C127.52 20.8564 126.239 21.7171 126.661 22.4554C129.537 26.5704 132.745 31.2712 134.156 33.7432C134.397 34.1659 135.059 34.1757 135.297 33.7432C137.389 29.9524 143.185 23.4553 145.277 19.6645C145.687 18.9217 144.546 18.2569 144.135 19.0003Z" fill="white" stroke="white" stroke-width="2"/>
<path d="M159.894 4.0874H147.041C146.993 4.0874 146.954 4.12613 146.954 4.1739V5.66319C146.954 5.71097 146.993 5.74969 147.041 5.74969H159.894C159.942 5.74969 159.981 5.71097 159.981 5.66319V4.1739C159.981 4.12613 159.942 4.0874 159.894 4.0874Z" fill="#E6E6E6"/>
<path d="M203.19 5.74951C203.928 5.74951 204.527 5.15412 204.527 4.41968C204.527 3.68523 203.928 3.08984 203.19 3.08984C202.452 3.08984 201.854 3.68523 201.854 4.41968C201.854 5.15412 202.452 5.74951 203.19 5.74951Z" fill="#E6E6E6"/>
<path d="M206.865 5.74951C207.603 5.74951 208.201 5.15412 208.201 4.41968C208.201 3.68523 207.603 3.08984 206.865 3.08984C206.127 3.08984 205.529 3.68523 205.529 4.41968C205.529 5.15412 206.127 5.74951 206.865 5.74951Z" fill="#E6E6E6"/>
<path d="M210.539 5.74951C211.277 5.74951 211.875 5.15412 211.875 4.41968C211.875 3.68523 211.277 3.08984 210.539 3.08984C209.801 3.08984 209.203 3.68523 209.203 4.41968C209.203 5.15412 209.801 5.74951 210.539 5.74951Z" fill="#E6E6E6"/>
<path d="M151.507 43.8169C151.507 44.001 151.655 44.1488 151.84 44.1488H209.077C209.262 44.1488 209.411 44.001 209.411 43.8169C209.411 43.6329 209.262 43.4851 209.077 43.4851H151.84C151.655 43.4851 151.507 43.6329 151.507 43.8169V43.8169Z" fill="#3F3D56"/>
<path d="M203.589 69.8978H169.24C168.672 69.8978 168.21 69.4381 168.21 68.8732C168.21 68.3083 168.672 67.8489 169.24 67.8489H203.589C204.156 67.8489 204.618 68.3083 204.618 68.8732C204.618 69.4381 204.156 69.8978 203.589 69.8978Z" fill="#A1A1A1"/>
<path d="M203.589 84.6768H169.24C168.672 84.6768 168.21 84.2172 168.21 83.6523C168.21 83.0874 168.672 82.6279 169.24 82.6279H203.589C204.156 82.6279 204.618 83.0874 204.618 83.6523C204.618 84.2172 204.156 84.6768 203.589 84.6768V84.6768Z" fill="#A1A1A1"/>
<path d="M203.589 99.4556H169.24C168.672 99.4556 168.21 98.996 168.21 98.4311C168.21 97.8662 168.672 97.4067 169.24 97.4067H203.589C204.156 97.4067 204.618 97.8662 204.618 98.4311C204.618 98.996 204.156 99.4556 203.589 99.4556V99.4556Z" fill="#A1A1A1"/>
<path d="M158.821 71.2563C160.214 71.2563 161.343 70.1327 161.343 68.7467C161.343 67.3607 160.214 66.2371 158.821 66.2371C157.429 66.2371 156.3 67.3607 156.3 68.7467C156.3 70.1327 157.429 71.2563 158.821 71.2563Z" fill="#A1A1A1"/>
<path d="M158.541 72.9294V72.3717C160.627 72.3717 162.324 70.683 162.324 68.6073C162.324 66.5316 160.627 64.8429 158.541 64.8429V64.2852C160.936 64.2852 162.884 66.224 162.884 68.6073C162.884 70.9906 160.936 72.9294 158.541 72.9294Z" fill="#3F3D56"/>
<path d="M158.821 86.0354C160.214 86.0354 161.343 84.9118 161.343 83.5257C161.343 82.1397 160.214 81.0161 158.821 81.0161C157.429 81.0161 156.3 82.1397 156.3 83.5257C156.3 84.9118 157.429 86.0354 158.821 86.0354Z" fill="#A1A1A1"/>
<path d="M158.541 87.7082V87.1505C160.627 87.1505 162.324 85.4619 162.324 83.3861C162.324 81.3104 160.627 79.6217 158.541 79.6217V79.064C160.936 79.064 162.884 81.0028 162.884 83.3861C162.884 85.7694 160.936 87.7082 158.541 87.7082Z" fill="#3F3D56"/>
<path d="M158.821 100.814C160.214 100.814 161.343 99.6906 161.343 98.3045C161.343 96.9185 160.214 95.7949 158.821 95.7949C157.429 95.7949 156.3 96.9185 156.3 98.3045C156.3 99.6906 157.429 100.814 158.821 100.814Z" fill="#A1A1A1"/>
<path d="M158.541 102.487V101.93C160.627 101.93 162.324 100.241 162.324 98.1652C162.324 96.0893 160.627 94.4007 158.541 94.4007V93.843C160.936 93.843 162.884 95.7819 162.884 98.1652C162.884 100.548 160.936 102.487 158.541 102.487Z" fill="#3F3D56"/>
<path d="M221.591 56.8153C223.147 56.4225 224.91 58.076 225.531 60.5096C225.792 61.4783 225.816 62.4952 225.602 63.4752L226.27 66.2415L226.319 66.239L231.592 78.6055C232.817 81.4809 232.688 84.7819 231.124 87.4902C230.194 89.1013 228.973 90.1843 227.539 89.0787C225.161 87.2441 223.607 76.74 222.897 70.7059L221.257 64.5724C220.598 63.8127 220.132 62.907 219.898 61.9312C219.277 59.4986 220.035 57.2081 221.591 56.8153V56.8153Z" fill="#ECC4AA"/>
<path d="M227.58 63.592L221.681 67.7652L224.631 86.2511L228.33 91.0125L232.639 89.5293L233.899 80.7906L232.416 72.3395L227.58 63.592Z" fill="#E3E6EB"/>
</g>
<defs>
<clipPath id="clip0_2_6071">
<rect width="375" height="175" fill="white"/>
</clipPath>
</defs>
</svg>
