<svg width="175" height="124" viewBox="0 0 175 124" fill="none" xmlns="http://www.w3.org/2000/svg">
<path d="M28.1571 41.2761V31.1781H24.1071C21.8391 31.1781 19.8231 30.8001 18.0591 30.0441C16.2951 29.2881 14.8191 28.2621 13.6311 26.9661C12.4431 25.6701 11.5251 24.1761 10.8771 22.4841C10.2651 20.7561 9.95907 18.9561 9.95907 17.0841V15.8961C9.95907 14.0241 10.2651 12.2421 10.8771 10.5501C11.5251 8.82208 12.4431 7.31008 13.6311 6.01408C14.8191 4.71808 16.2951 3.69208 18.0591 2.93608C19.8231 2.14408 21.8391 1.74808 24.1071 1.74808H43.2231C45.4911 1.74808 47.5071 2.14408 49.2711 2.93608C51.0351 3.69208 52.5111 4.71808 53.6991 6.01408C54.8871 7.31008 55.7871 8.82208 56.3991 10.5501C57.0471 12.2421 57.3711 14.0241 57.3711 15.8961V17.0841C57.3711 18.9561 57.0471 20.7561 56.3991 22.4841C55.7871 24.1761 54.8871 25.6701 53.6991 26.9661C52.5111 28.2621 51.0351 29.2881 49.2711 30.0441C47.5071 30.8001 45.4911 31.1781 43.2231 31.1781H39.1731V41.2761H54.4011C55.2291 41.2761 55.9311 41.4021 56.5071 41.6541C57.0831 41.9061 57.5511 42.2481 57.9111 42.6801C58.2711 43.0761 58.5231 43.5441 58.6671 44.0841C58.8471 44.5881 58.9371 45.1101 58.9371 45.6501C58.9371 46.7661 58.5771 47.7741 57.8571 48.6741C57.1731 49.5741 56.0211 50.0241 54.4011 50.0241H12.9291C11.3091 50.0241 10.1391 49.5741 9.41907 48.6741C8.73507 47.7741 8.39307 46.7661 8.39307 45.6501C8.39307 45.1101 8.46507 44.5881 8.60907 44.0841C8.78907 43.5441 9.05907 43.0761 9.41907 42.6801C9.77907 42.2481 10.2471 41.9061 10.8231 41.6541C11.3991 41.4021 12.1011 41.2761 12.9291 41.2761H28.1571ZM46.1391 15.7881C46.1391 14.2761 45.6171 13.0341 44.5731 12.0621C43.5291 11.0541 42.1071 10.5501 40.3071 10.5501H27.0231C25.2231 10.5501 23.8011 11.0541 22.7571 12.0621C21.7131 13.0341 21.1911 14.2761 21.1911 15.7881V17.1921C21.1911 18.7041 21.7131 19.9641 22.7571 20.9721C23.8011 21.9441 25.2231 22.4301 27.0231 22.4301H40.3071C42.1071 22.4301 43.5291 21.9441 44.5731 20.9721C45.6171 19.9641 46.1391 18.7041 46.1391 17.1921V15.7881Z" fill="#3F778C"/>
<path d="M108.884 19.2981C109.604 19.2981 110.198 19.4241 110.666 19.6761C111.17 19.8921 111.566 20.1801 111.854 20.5401C112.178 20.9001 112.412 21.3141 112.556 21.7821C112.7 22.2141 112.772 22.6641 112.772 23.1321C112.772 24.1041 112.466 24.9861 111.854 25.7781C111.278 26.5701 110.288 26.9661 108.884 26.9661H66.1161C64.7121 26.9661 63.7041 26.5701 63.0921 25.7781C62.5161 24.9861 62.2281 24.1041 62.2281 23.1321C62.2281 22.6641 62.3001 22.2141 62.4441 21.7821C62.5881 21.3141 62.8041 20.9001 63.0921 20.5401C63.4161 20.1801 63.8121 19.8921 64.2801 19.6761C64.7841 19.4241 65.3961 19.2981 66.1161 19.2981H108.884ZM70.5441 51.1041C69.3921 51.1041 68.3841 50.9061 67.5201 50.5101C66.6561 50.1501 65.9361 49.6461 65.3601 48.9981C64.8201 48.3501 64.4061 47.6121 64.1181 46.7841C63.8661 45.9201 63.7401 45.0201 63.7401 44.0841V43.9221C63.7401 42.0141 64.2801 40.4481 65.3601 39.2241C66.4401 38.0001 68.1681 37.3881 70.5441 37.3881H99.4341V36.2541C99.4341 35.6781 99.0561 35.3901 98.3001 35.3901H67.3581C66.3501 35.3901 65.5761 35.0661 65.0361 34.4181C64.5321 33.7701 64.2801 33.0861 64.2801 32.3661C64.2801 31.6461 64.5141 30.9621 64.9821 30.3141C65.4861 29.6301 66.2781 29.2881 67.3581 29.2881H104.51C106.814 29.2881 108.398 29.7201 109.262 30.5841C110.126 31.4121 110.558 32.6541 110.558 34.3101V42.9501H76.3761C75.9801 42.9501 75.7101 43.0581 75.5661 43.2741C75.4221 43.4541 75.3501 43.6881 75.3501 43.9761C75.3501 44.2641 75.4221 44.4981 75.5661 44.6781C75.7101 44.8581 75.9801 44.9481 76.3761 44.9481H109.154C110.198 44.9481 110.936 45.2721 111.368 45.9201C111.836 46.5681 112.07 47.2701 112.07 48.0261C112.07 48.6741 111.854 49.3401 111.422 50.0241C110.99 50.7441 110.234 51.1041 109.154 51.1041H70.5441ZM72.0021 16.9221C70.6341 16.9221 69.4641 16.8141 68.4921 16.5981C67.5201 16.3461 66.7281 15.9501 66.1161 15.4101C65.5401 14.8701 65.1081 14.1501 64.8201 13.2501C64.5681 12.3141 64.4421 11.1621 64.4421 9.79408V6.12208C64.4421 5.22208 64.5861 4.44808 64.8741 3.80008C65.1981 3.11608 65.6121 2.55808 66.1161 2.12608C66.6561 1.69408 67.2681 1.37008 67.9521 1.15408C68.6361 0.938078 69.3381 0.830078 70.0581 0.830078C71.5341 0.830078 72.7941 1.26208 73.8381 2.12608C74.9181 2.99008 75.4581 4.32208 75.4581 6.12208V7.95808C75.4581 8.53408 75.5481 8.89408 75.7281 9.03808C75.9081 9.18208 76.3041 9.25408 76.9161 9.25408H106.4C108.02 9.25408 109.154 9.65008 109.802 10.4421C110.45 11.1981 110.774 12.0981 110.774 13.1421C110.774 14.2221 110.45 15.1221 109.802 15.8421C109.154 16.5621 108.02 16.9221 106.4 16.9221H72.0021Z" fill="#3F778C"/>
<path d="M158.777 2.12608C159.533 2.12608 160.181 2.27008 160.721 2.55808C161.261 2.84608 161.693 3.20608 162.017 3.63808C162.341 4.07008 162.575 4.55608 162.719 5.09608C162.863 5.63608 162.935 6.15808 162.935 6.66208C162.935 7.16608 162.863 7.68808 162.719 8.22808C162.575 8.76808 162.323 9.25408 161.963 9.68608C161.639 10.1181 161.207 10.4781 160.667 10.7661C160.163 11.0181 159.533 11.1441 158.777 11.1441H131.453C130.877 11.1441 130.481 11.2521 130.265 11.4681C130.049 11.6481 129.941 12.0261 129.941 12.6021V20.4321C129.941 21.0081 130.049 21.4041 130.265 21.6201C130.481 21.8361 130.877 21.9441 131.453 21.9441H159.641C160.397 21.9441 161.045 22.0881 161.585 22.3761C162.125 22.6641 162.557 23.0241 162.881 23.4561C163.205 23.8881 163.439 24.3741 163.583 24.9141C163.763 25.4181 163.853 25.9221 163.853 26.4261C163.853 26.9301 163.763 27.4521 163.583 27.9921C163.439 28.5321 163.187 29.0181 162.827 29.4501C162.503 29.8821 162.071 30.2421 161.531 30.5301C161.027 30.7821 160.397 30.9081 159.641 30.9081H146.843V41.2761H162.071C162.899 41.2761 163.601 41.4021 164.177 41.6541C164.753 41.9061 165.221 42.2481 165.581 42.6801C165.941 43.0761 166.193 43.5441 166.337 44.0841C166.517 44.5881 166.607 45.1101 166.607 45.6501C166.607 46.7661 166.247 47.7741 165.527 48.6741C164.843 49.5741 163.691 50.0241 162.071 50.0241H120.599C118.979 50.0241 117.809 49.5741 117.089 48.6741C116.405 47.7741 116.063 46.7661 116.063 45.6501C116.063 45.1101 116.135 44.5881 116.279 44.0841C116.459 43.5441 116.729 43.0761 117.089 42.6801C117.449 42.2481 117.917 41.9061 118.493 41.6541C119.069 41.4021 119.771 41.2761 120.599 41.2761H135.827V30.9081H127.619C125.999 30.9081 124.631 30.7641 123.515 30.4761C122.399 30.1521 121.499 29.6661 120.815 29.0181C120.167 28.3341 119.681 27.4521 119.357 26.3721C119.069 25.2921 118.925 23.9601 118.925 22.3761V10.6581C118.925 9.11008 119.069 7.79608 119.357 6.71608C119.681 5.63608 120.167 4.75408 120.815 4.07008C121.499 3.38608 122.399 2.90008 123.515 2.61208C124.631 2.28808 125.999 2.12608 127.619 2.12608H158.777Z" fill="#3F778C"/>
<path d="M10.5255 123.128C9.30147 123.128 8.20346 122.93 7.23147 122.534C6.29546 122.138 5.50346 121.598 4.85546 120.914C4.20746 120.23 3.70346 119.456 3.34347 118.592C3.01946 117.692 2.85747 116.756 2.85747 115.784V115.136C2.85747 113.192 3.50546 111.644 4.80147 110.492C6.13346 109.34 8.04146 108.764 10.5255 108.764H36.6075V107.36C36.6075 107.036 36.5535 106.82 36.4455 106.712C36.3375 106.568 36.1035 106.496 35.7435 106.496H6.42146C5.37747 106.496 4.62147 106.172 4.15347 105.524C3.68546 104.876 3.45146 104.138 3.45146 103.31C3.45146 102.554 3.68546 101.852 4.15347 101.204C4.62147 100.52 5.37747 100.178 6.42146 100.178H40.9815C43.3935 100.178 45.0855 100.592 46.0575 101.42C47.0655 102.248 47.5695 103.724 47.5695 105.848V114.488H15.4395C15.0435 114.488 14.7375 114.596 14.5215 114.812C14.3415 114.992 14.2515 115.226 14.2515 115.514V115.676C14.2515 115.964 14.3415 116.216 14.5215 116.432C14.7375 116.612 15.0435 116.702 15.4395 116.702H45.8955C46.9755 116.702 47.7495 117.044 48.2175 117.728C48.7215 118.412 48.9735 119.168 48.9735 119.996C48.9735 120.752 48.7395 121.454 48.2715 122.102C47.8035 122.786 47.0115 123.128 45.8955 123.128H10.5255ZM0.751465 84.8961C0.751465 82.7361 1.11147 80.9181 1.83147 79.4421C2.58747 77.9301 3.61347 76.7061 4.90947 75.7701C6.24147 74.7981 7.84347 74.0961 9.71547 73.6641C11.5875 73.2321 13.6575 73.0161 15.9255 73.0161C18.1935 73.0161 20.2635 73.2321 22.1355 73.6641C24.0075 74.0961 25.5915 74.7981 26.8875 75.7701C28.2195 76.7061 29.2455 77.9301 29.9655 79.4421C30.7215 80.9181 31.0995 82.7361 31.0995 84.8961V86.3541C31.0995 88.5141 30.7215 90.3501 29.9655 91.8621C29.2455 93.3381 28.2195 94.5621 26.8875 95.5341C25.5915 96.4701 24.0075 97.1541 22.1355 97.5861C20.2635 98.0181 18.1935 98.2341 15.9255 98.2341C13.6575 98.2341 11.5875 98.0181 9.71547 97.5861C7.84347 97.1541 6.24147 96.4701 4.90947 95.5341C3.61347 94.5621 2.58747 93.3381 1.83147 91.8621C1.11147 90.3501 0.751465 88.5141 0.751465 86.3541V84.8961ZM36.4995 77.7681C36.4995 76.0041 37.0215 74.6721 38.0655 73.7721C39.1455 72.8721 40.4055 72.4221 41.8455 72.4221C43.2495 72.4221 44.4915 72.8901 45.5715 73.8261C46.6515 74.7261 47.1915 76.0401 47.1915 77.7681V81.1161H48.8655C49.6935 81.1161 50.3775 81.2601 50.9175 81.5481C51.4575 81.8001 51.8895 82.1601 52.2135 82.6281C52.5375 83.0601 52.7715 83.5461 52.9155 84.0861C53.0595 84.6261 53.1315 85.1661 53.1315 85.7061C53.1315 86.2461 53.0595 86.8041 52.9155 87.3801C52.7715 87.9201 52.5375 88.4061 52.2135 88.8381C51.8895 89.2701 51.4395 89.6301 50.8635 89.9181C50.3235 90.1701 49.6575 90.2961 48.8655 90.2961H47.1915V98.4501H36.4995V77.7681ZM11.3895 86.7321C11.3895 88.1001 11.7855 89.0901 12.5775 89.7021C13.4055 90.3141 14.5215 90.6201 15.9255 90.6201C17.3295 90.6201 18.4275 90.3141 19.2195 89.7021C20.0475 89.0901 20.4615 88.1001 20.4615 86.7321V84.5181C20.4615 83.1861 20.0475 82.2141 19.2195 81.6021C18.4275 80.9541 17.3295 80.6301 15.9255 80.6301C14.5215 80.6301 13.4055 80.9541 12.5775 81.6021C11.7855 82.2141 11.3895 83.1861 11.3895 84.5181V86.7321Z" fill="#3F778C"/>
<path d="M69.5985 72.2061C71.4345 72.2061 72.8025 72.6741 73.7025 73.6101C74.6385 74.5101 75.1065 75.8241 75.1065 77.5521V78.2001H81.8025C82.6305 78.2001 83.3145 78.3441 83.8545 78.6321C84.4305 78.8841 84.8985 79.2441 85.2585 79.7121C85.6185 80.1441 85.8705 80.6301 86.0145 81.1701C86.1585 81.7101 86.2305 82.2501 86.2305 82.7901C86.2305 83.3301 86.1405 83.8701 85.9605 84.4101C85.8165 84.9501 85.5645 85.4361 85.2045 85.8681C84.8805 86.3001 84.4305 86.6601 83.8545 86.9481C83.2785 87.2001 82.5945 87.3261 81.8025 87.3261H74.8905V90.6201C74.8905 91.8801 74.8545 93.0861 74.7825 94.2381C74.7105 95.3901 74.6025 96.5241 74.4585 97.6401C76.3665 98.2521 78.0765 99.0981 79.5885 100.178C81.1365 101.222 82.4145 102.626 83.4225 104.39C84.4665 106.154 85.2225 108.314 85.6905 110.87C86.1585 113.426 86.2845 116.504 86.0685 120.104H76.0785C76.4745 116.576 76.3125 113.75 75.5925 111.626C74.9085 109.502 73.7385 107.918 72.0825 106.874C70.7145 110.15 68.9505 112.886 66.7905 115.082C64.6305 117.242 62.1825 118.898 59.4465 120.05C58.8705 120.302 58.2585 120.428 57.6105 120.428C56.9625 120.464 56.3325 120.392 55.7205 120.212C55.1085 120.068 54.5505 119.816 54.0465 119.456C53.5425 119.096 53.1465 118.646 52.8585 118.106C52.3545 117.134 52.2285 116.09 52.4805 114.974C52.7325 113.858 53.3985 112.976 54.4785 112.328C56.1345 111.356 57.5925 110.222 58.8525 108.926C60.1125 107.63 61.1565 106.118 61.9845 104.39C62.8485 102.626 63.4785 100.592 63.8745 98.2881C64.3065 95.9841 64.5225 93.3381 64.5225 90.3501V87.3261H57.2865C56.4585 87.3261 55.7565 87.2001 55.1805 86.9481C54.6405 86.6601 54.1725 86.3001 53.7765 85.8681C53.4165 85.4361 53.1465 84.9501 52.9665 84.4101C52.8225 83.8701 52.7505 83.3301 52.7505 82.7901C52.7505 82.2501 52.8225 81.7101 52.9665 81.1701C53.1465 80.6301 53.4165 80.1441 53.7765 79.7121C54.1365 79.2441 54.6045 78.8841 55.1805 78.6321C55.7565 78.3441 56.4585 78.2001 57.2865 78.2001H64.0905V77.5521C64.0905 75.8241 64.5405 74.5101 65.4405 73.6101C66.3765 72.6741 67.7625 72.2061 69.5985 72.2061ZM90.2265 77.6601C90.2265 75.9321 90.7665 74.6361 91.8465 73.7721C92.9265 72.8721 94.1685 72.4221 95.5725 72.4221C96.2565 72.4221 96.9225 72.5481 97.5705 72.8001C98.2185 73.0161 98.7765 73.3401 99.2445 73.7721C99.7485 74.2041 100.144 74.7441 100.432 75.3921C100.756 76.0401 100.918 76.7961 100.918 77.6601V91.3221H102.7C103.528 91.3221 104.212 91.4661 104.752 91.7541C105.292 92.0421 105.724 92.4201 106.048 92.8881C106.372 93.3201 106.606 93.8241 106.75 94.4001C106.894 94.9401 106.966 95.4801 106.966 96.0201C106.966 96.5601 106.894 97.1181 106.75 97.6941C106.606 98.2341 106.372 98.7381 106.048 99.2061C105.724 99.6381 105.274 99.9981 104.698 100.286C104.158 100.574 103.492 100.718 102.7 100.718H100.918V123.128H90.2265V77.6601Z" fill="#3F778C"/>
<path d="M111.229 112.544C112.777 112.292 114.199 111.896 115.495 111.356C116.791 110.78 117.907 109.934 118.843 108.818C119.779 107.702 120.499 106.226 121.003 104.39C121.543 102.554 121.813 100.232 121.813 97.4241V84.8961C121.813 84.5001 121.687 84.1761 121.435 83.9241C121.219 83.6721 120.895 83.5461 120.463 83.5461H112.201C111.373 83.5461 110.671 83.4201 110.095 83.1681C109.555 82.8801 109.087 82.5201 108.691 82.0881C108.331 81.6561 108.061 81.1701 107.881 80.6301C107.737 80.0901 107.665 79.5501 107.665 79.0101C107.665 78.4701 107.737 77.9301 107.881 77.3901C108.061 76.8501 108.331 76.3641 108.691 75.9321C109.051 75.5001 109.519 75.1581 110.095 74.9061C110.671 74.6181 111.373 74.4741 112.201 74.4741H123.595C125.107 74.4741 126.385 74.6001 127.429 74.8521C128.473 75.1041 129.319 75.5181 129.967 76.0941C130.615 76.6701 131.065 77.4261 131.317 78.3621C131.605 79.2981 131.749 80.4501 131.749 81.8181V92.4021H135.529V77.0121C135.529 75.5001 135.979 74.3661 136.879 73.6101C137.779 72.8181 138.859 72.4221 140.119 72.4221C140.731 72.4221 141.325 72.5301 141.901 72.7461C142.477 72.9261 142.981 73.2141 143.413 73.6101C143.881 74.0061 144.241 74.4921 144.493 75.0681C144.781 75.6081 144.925 76.2561 144.925 77.0121V123.128H135.529V101.15H131.587C131.263 104.786 130.525 107.864 129.373 110.384C128.257 112.868 126.853 114.902 125.161 116.486C123.469 118.07 121.543 119.24 119.383 119.996C117.223 120.788 114.991 121.274 112.687 121.454C111.247 121.562 109.969 121.274 108.853 120.59C107.773 119.942 107.197 118.862 107.125 117.35C107.053 116.09 107.341 115.046 107.989 114.218C108.673 113.354 109.753 112.796 111.229 112.544ZM147.571 77.0121C147.571 75.5001 148.057 74.3661 149.029 73.6101C150.001 72.8181 151.117 72.4221 152.377 72.4221C152.989 72.4221 153.583 72.5301 154.159 72.7461C154.735 72.9261 155.239 73.2141 155.671 73.6101C156.139 74.0061 156.499 74.4921 156.751 75.0681C157.039 75.6081 157.183 76.2561 157.183 77.0121V123.128H147.571V77.0121Z" fill="#3F778C"/>
<path d="M162.742 106.712V78.1461C162.742 77.2821 162.886 76.5261 163.174 75.8781C163.498 75.1941 163.912 74.6361 164.416 74.2041C164.92 73.7361 165.496 73.3941 166.144 73.1781C166.828 72.9261 167.53 72.8001 168.25 72.8001C168.934 72.8001 169.6 72.9261 170.248 73.1781C170.932 73.3941 171.526 73.7361 172.03 74.2041C172.57 74.6361 172.984 75.1941 173.272 75.8781C173.596 76.5261 173.758 77.2821 173.758 78.1461V106.712H162.742ZM162.472 114.704C162.472 113.012 162.976 111.68 163.984 110.708C164.992 109.736 166.414 109.25 168.25 109.25C170.086 109.25 171.508 109.754 172.516 110.762C173.524 111.734 174.028 113.048 174.028 114.704C174.028 116.36 173.524 117.692 172.516 118.7C171.508 119.672 170.086 120.158 168.25 120.158C166.414 120.158 164.992 119.672 163.984 118.7C162.976 117.728 162.472 116.396 162.472 114.704Z" fill="#3F778C"/>
</svg>
