<svg width="335" height="200" viewBox="0 0 335 200" fill="none" xmlns="http://www.w3.org/2000/svg">
<g clip-path="url(#clip0_30_1010)">
<path d="M244.423 151.004C243.379 151.37 242.257 151.462 241.167 151.27C240.077 151.079 239.054 150.611 238.198 149.911C236.018 148.088 235.334 145.084 234.778 142.303L233.133 134.075L236.577 136.438C239.054 138.137 241.587 139.891 243.302 142.353C245.017 144.815 245.765 148.175 244.387 150.839" fill="#E6E6E6"/>
<path d="M243.891 161.538C244.325 158.391 244.771 155.203 244.466 152.022C244.196 149.197 243.331 146.439 241.57 144.176C240.635 142.977 239.498 141.95 238.209 141.141C237.873 140.93 237.564 141.46 237.898 141.671C240.129 143.075 241.854 145.149 242.825 147.593C243.897 150.311 244.069 153.274 243.885 156.162C243.773 157.908 243.536 159.642 243.297 161.375C243.279 161.453 243.29 161.536 243.33 161.606C243.37 161.676 243.435 161.728 243.512 161.752C243.591 161.774 243.675 161.763 243.746 161.723C243.817 161.683 243.869 161.616 243.891 161.538L243.891 161.538Z" fill="#F2F2F2"/>
<path d="M240.771 156.489C240.323 157.167 239.707 157.719 238.983 158.092C238.259 158.464 237.45 158.645 236.636 158.616C234.542 158.517 232.798 157.061 231.227 155.679L226.581 151.591L229.656 151.445C231.867 151.339 234.135 151.24 236.242 151.921C238.348 152.601 240.29 154.235 240.675 156.408" fill="#E6E6E6"/>
<path d="M245.117 163.347C243.03 159.668 240.609 155.578 236.283 154.271C235.081 153.909 233.82 153.779 232.568 153.889C232.174 153.923 232.272 154.528 232.666 154.495C234.764 154.321 236.858 154.873 238.595 156.058C240.267 157.192 241.569 158.768 242.67 160.44C243.345 161.464 243.95 162.531 244.554 163.597C244.747 163.938 245.312 163.692 245.117 163.347Z" fill="#F2F2F2"/>
<path d="M170.572 69.9243V104.962H89.3584V123.566H67.8877V69.9243H170.572Z" fill="white"/>
<path d="M66.9531 68.9958V124.497H89.3583V122.638H68.8193V70.8555H169.64V104.962H171.506V68.9958H66.9531Z" fill="#E5E5E5"/>
<path d="M154.5 89.7798H89.4099V92.0694H154.5V89.7798Z" fill="#E5E5E5"/>
<path d="M154.5 95.7327H89.4099V98.0222H154.5V95.7327Z" fill="#E5E5E5"/>
<path d="M154.5 101.686H89.4099V103.975H154.5V101.686Z" fill="#E5E5E5"/>
<path d="M85.459 92.5053C86.2872 92.5053 86.9585 91.8363 86.9585 91.0111C86.9585 90.1858 86.2872 89.5168 85.459 89.5168C84.6308 89.5168 83.9595 90.1858 83.9595 91.0111C83.9595 91.8363 84.6308 92.5053 85.459 92.5053Z" fill="#E5E5E5"/>
<path d="M142.618 30.9285V65.9664H61.405V84.5704H39.9343V30.9285H142.618Z" fill="white"/>
<path d="M39 30V85.5015H61.4052V83.6419H40.8662V31.8596H141.687V65.9664H143.553V30H39Z" fill="#F1F1F1"/>
<path d="M126.547 50.7839H61.4568V53.0735H126.547V50.7839Z" fill="#F1F1F1"/>
<path d="M126.547 56.7368H61.4568V59.0264H126.547V56.7368Z" fill="#F1F1F1"/>
<path d="M126.547 62.6897H61.4568V64.9793H126.547V62.6897Z" fill="#F1F1F1"/>
<path d="M57.5059 53.5094C58.334 53.5094 59.0054 52.8405 59.0054 52.0152C59.0054 51.19 58.334 50.521 57.5059 50.521C56.6777 50.521 56.0063 51.19 56.0063 52.0152C56.0063 52.8405 56.6777 53.5094 57.5059 53.5094Z" fill="#F1F1F1"/>
<path d="M197.533 109.428H94.8467V163.07H197.533V109.428Z" fill="white"/>
<path d="M198.466 164H93.9133V108.498H198.466V164ZM95.7803 162.14H196.599V110.358H95.7803V162.14Z" fill="#CBCBCB"/>
<path d="M180.202 129.367H117.402C116.77 129.367 116.257 129.879 116.257 130.512C116.257 131.144 116.77 131.657 117.402 131.657H180.202C180.835 131.657 181.347 131.144 181.347 130.512C181.347 129.879 180.835 129.367 180.202 129.367Z" fill="#8CE2EF"/>
<path d="M180.202 135.32H117.402C116.77 135.32 116.257 135.832 116.257 136.465C116.257 137.097 116.77 137.609 117.402 137.609H180.202C180.835 137.609 181.347 137.097 181.347 136.465C181.347 135.832 180.835 135.32 180.202 135.32Z" fill="#8CE2EF"/>
<path d="M180.202 141.273H117.402C116.77 141.273 116.257 141.785 116.257 142.417C116.257 143.05 116.77 143.562 117.402 143.562H180.202C180.835 143.562 181.347 143.05 181.347 142.417C181.347 141.785 180.835 141.273 180.202 141.273Z" fill="#8CE2EF"/>
<path d="M112.306 132.092C113.135 132.092 113.806 131.423 113.806 130.598C113.806 129.773 113.135 129.104 112.306 129.104C111.478 129.104 110.807 129.773 110.807 130.598C110.807 131.423 111.478 132.092 112.306 132.092Z" fill="#8CE2EF"/>
<path d="M182.396 108.5C182.17 108.181 182.016 107.817 181.946 107.433C181.876 107.049 181.891 106.654 181.991 106.277C182.09 105.899 182.272 105.548 182.522 105.248C182.773 104.947 183.086 104.706 183.441 104.539L190.867 81.3679L196.039 84.0452L187.113 105.98C187.354 106.592 187.361 107.271 187.134 107.888C186.906 108.504 186.459 109.017 185.878 109.327C185.297 109.638 184.621 109.725 183.979 109.573C183.338 109.42 182.774 109.039 182.396 108.5V108.5Z" fill="#ECC4AA"/>
<path d="M188.464 84.5721C188.393 84.4153 188.356 84.245 188.357 84.0729C188.358 83.9009 188.396 83.731 188.469 83.575L191.013 78.1255C191.264 77.2813 191.84 76.5706 192.616 76.1493C193.392 75.728 194.304 75.6305 195.152 75.8782C196 76.1258 196.714 76.6984 197.139 77.4704C197.564 78.2424 197.665 79.1507 197.418 79.9963L196.568 85.9661C196.544 86.1364 196.483 86.2996 196.39 86.4444C196.297 86.5893 196.173 86.7124 196.028 86.8053C195.882 86.8983 195.719 86.959 195.548 86.9833C195.377 87.0075 195.203 86.9948 195.037 86.9459L189.218 85.2278C189.052 85.179 188.899 85.0952 188.769 84.982C188.639 84.8688 188.535 84.729 188.464 84.5721Z" fill="#E3E6EB"/>
<path d="M209.919 85.4917L209.504 91.2795L195.398 96.2405L195.191 90.6593L209.919 85.4917Z" fill="#ECC4AA"/>
<path d="M202.261 69.1814L208.244 78.9287L193.641 81.3902L195.844 69.472L202.261 69.1814Z" fill="#ECC4AA"/>
<path d="M191.872 77.0169L196.435 73.7096L203.903 71.6426L210.126 72.8828L211.164 82.5979L209.919 88.7991L193.739 92.5197L192.079 89.6259C192.079 89.6259 188.345 85.9052 191.249 81.7711L191.872 77.0169Z" fill="#E3E6EB"/>
<path d="M190.212 68.5282V63.0998C190.212 60.8031 191.128 58.6005 192.758 56.9765C194.387 55.3525 196.598 54.4402 198.903 54.4402C201.207 54.4402 203.418 55.3525 205.048 56.9765C206.677 58.6005 207.593 60.8031 207.593 63.0998V68.5282C207.593 68.8366 207.469 69.1323 207.251 69.3504C207.032 69.5685 206.735 69.6911 206.426 69.6915H191.38C191.07 69.6911 190.773 69.5684 190.554 69.3504C190.336 69.1323 190.213 68.8366 190.212 68.5282Z" fill="#2F2E41"/>
<path d="M198.553 69.638C202.072 69.638 204.925 66.7955 204.925 63.2891C204.925 59.7827 202.072 56.9402 198.553 56.9402C195.034 56.9402 192.182 59.7827 192.182 63.2891C192.182 66.7955 195.034 69.638 198.553 69.638Z" fill="#ECC4AA"/>
<path d="M192.007 63.2645C191.946 63.1945 191.901 63.1122 191.875 63.0233C191.848 62.9344 191.842 62.841 191.855 62.7493L192.61 57.5122C192.625 57.4056 192.666 57.3045 192.73 57.2179C192.794 57.1312 192.879 57.0619 192.977 57.0161C196.829 55.2196 200.736 55.2173 204.588 57.0093C204.69 57.0576 204.778 57.1315 204.843 57.2237C204.908 57.316 204.948 57.4235 204.959 57.5357L205.463 62.7796C205.471 62.8692 205.461 62.9597 205.432 63.0451C205.404 63.1306 205.358 63.2092 205.297 63.2758C205.236 63.3425 205.162 63.3957 205.079 63.4322C204.997 63.4686 204.907 63.4874 204.817 63.4874H203.539C203.416 63.4871 203.295 63.4519 203.191 63.3859C203.087 63.3199 203.004 63.2258 202.951 63.1145L202.4 61.9372C202.364 61.8609 202.305 61.7983 202.23 61.7588C202.156 61.7193 202.07 61.705 201.987 61.7181C201.904 61.7311 201.827 61.7709 201.768 61.8313C201.709 61.8917 201.672 61.9696 201.661 62.053L201.552 62.9212C201.533 63.0774 201.456 63.2211 201.338 63.3253C201.219 63.4296 201.067 63.4872 200.909 63.4874H192.497C192.404 63.4874 192.312 63.4675 192.228 63.429C192.143 63.3906 192.068 63.3345 192.007 63.2645Z" fill="#2F2E41"/>
<path d="M219.665 105.796C219.284 105.708 218.926 105.537 218.618 105.296C218.31 105.056 218.058 104.75 217.881 104.402C217.704 104.054 217.606 103.671 217.593 103.281C217.58 102.89 217.654 102.502 217.808 102.143L207.928 79.9004L213.58 78.4819L221.515 100.792C222.102 101.09 222.56 101.593 222.801 102.205C223.042 102.817 223.049 103.496 222.821 104.113C222.593 104.729 222.146 105.242 221.564 105.552C220.983 105.862 220.307 105.949 219.665 105.796Z" fill="#ECC4AA"/>
<path d="M208.265 83.8867C208.107 83.8164 207.966 83.7131 207.852 83.5837C207.739 83.4544 207.654 83.3021 207.605 83.1372L205.877 77.3789C205.502 76.5815 205.46 75.6686 205.76 74.8403C206.059 74.012 206.677 73.336 207.476 72.9604C208.275 72.5848 209.191 72.5403 210.023 72.8367C210.855 73.1331 211.535 73.7462 211.914 74.5415L215.255 79.5689C215.35 79.7123 215.413 79.8746 215.44 80.0446C215.467 80.2146 215.456 80.3884 215.41 80.554C215.363 80.7197 215.281 80.8734 215.169 81.0046C215.058 81.1358 214.919 81.2415 214.762 81.3144L209.265 83.8784C209.109 83.9514 208.939 83.99 208.766 83.9914C208.593 83.9929 208.422 83.9571 208.265 83.8867Z" fill="#E3E6EB"/>
<path d="M209.209 160.081L205.613 160.081L203.902 146.259L209.209 146.259L209.209 160.081Z" fill="#ECC4AA"/>
<path d="M210.126 163.554L198.531 163.554V163.408C198.531 162.215 199.006 161.071 199.853 160.228C200.699 159.385 201.847 158.911 203.044 158.911H203.044L210.126 158.911L210.126 163.554Z" fill="#2F2E41"/>
<path d="M206.476 130.898L204.024 133.52L192.71 125.344L196.328 121.475L206.476 130.898Z" fill="#ECC4AA"/>
<path d="M209.652 132.598L201.747 141.051L201.639 140.951C200.764 140.138 200.248 139.011 200.206 137.819C200.163 136.627 200.598 135.468 201.414 134.595L201.414 134.595L206.242 129.432L209.652 132.598Z" fill="#2F2E41"/>
<path d="M210.334 91.2796L211.484 92.4256C217.237 98.1582 218.653 106.107 217.962 114.185C217.865 115.382 217.673 116.57 217.387 117.738C215.312 126.006 216.557 152.464 212.408 154.118L211.578 157.012L203.488 156.714L203.696 154.118C203.696 154.118 201.829 150.19 203.073 147.71C204.318 145.229 207.015 126.833 207.015 126.833L205.563 111.743L194.776 117.118C194.776 117.118 200.377 120.218 199.962 122.285C199.962 122.285 203.281 123.112 202.451 125.179L203.696 127.66L200.792 132.207C200.792 132.207 181.292 120.632 182.952 114.844C184.611 109.056 194.983 104.922 194.983 104.922L195.813 98.7209L195.098 95.342L209.611 89.7827L210.334 91.2796Z" fill="#080E0E"/>
<path d="M258.734 164H140.532C140.461 164 140.394 163.972 140.344 163.922C140.294 163.873 140.266 163.805 140.266 163.735C140.266 163.664 140.294 163.597 140.344 163.547C140.394 163.497 140.461 163.469 140.532 163.469H258.734C258.804 163.469 258.872 163.497 258.922 163.547C258.972 163.597 259 163.664 259 163.735C259 163.805 258.972 163.873 258.922 163.922C258.872 163.972 258.804 164 258.734 164Z" fill="#CBCBCB"/>
</g>
<defs>
<clipPath id="clip0_30_1010">
<rect width="220" height="134" fill="white" transform="translate(39 30)"/>
</clipPath>
</defs>
</svg>
