<svg width="375" height="523" viewBox="0 0 375 523" fill="none" xmlns="http://www.w3.org/2000/svg">
<rect width="375" height="522" fill="white"/>
<g clip-path="url(#clip0_4_44)">
<path d="M231.9 239.466H217.398V234.714C217.398 226.748 223.896 220.28 231.9 220.28H231.9V239.466V239.466Z" fill="#2F2E41"/>
<path d="M228.686 230.594L231.179 241.756L216.568 239.342L222.522 228.785L228.686 230.594Z" fill="#D5A790"/>
<path opacity="0.1" d="M228.686 230.594L231.179 241.756L216.568 239.342L222.522 228.785L228.686 230.594Z" fill="#E3B79C"/>
<path d="M214.677 275.074H228.686V254.439H214.677V275.074Z" fill="#D6A991"/>
<path d="M237.792 291.944L234.71 308.396C234.71 308.396 236.671 319.829 230.787 331.54L226.865 343.531L220.981 342.694C220.981 342.694 224.623 333.771 224.623 329.867C224.623 325.963 225.464 310.906 225.464 310.906L225.044 293.724L237.792 291.944Z" fill="#080E0E"/>
<path d="M220.14 342.415C220.14 342.415 226.865 339.906 227.425 343.531L227.145 345.204C227.145 345.204 229.666 352.733 226.024 353.291C222.382 353.848 219.02 354.685 218.74 353.012C218.459 351.339 218.464 349.25 219.162 347.785C219.86 346.319 220.14 342.415 220.14 342.415Z" fill="#2F2E41"/>
<path d="M216.582 289.392L214.945 306.048C214.945 306.048 209.867 316.487 212.246 329.365L212.663 341.968L218.548 342.793C218.548 342.793 217.543 333.214 218.634 329.464C219.725 325.714 223.125 311.018 223.125 311.018L228.33 294.63L216.582 289.392Z" fill="#080E0E"/>
<path d="M219.433 342.758C219.433 342.758 213.676 338.486 212.124 341.813L211.926 343.498C211.926 343.498 207.4 350.031 210.743 351.575C214.086 353.119 217.081 354.853 217.818 353.324C218.555 351.794 219.134 349.787 218.873 348.186C218.612 346.585 219.433 342.758 219.433 342.758Z" fill="#2F2E41"/>
<path d="M234.429 265.593C241.019 271.713 241.508 281.396 237.651 292.92C237.651 292.92 225.324 301.285 216.358 290.689L211.875 269.218L234.429 265.593Z" fill="#080E0E"/>
<path d="M223.363 235.756L230.367 236.872L229.807 254.439L237.652 270.054L227.565 275.074C227.565 275.074 219.72 260.295 218.319 251.093C216.919 241.891 217.759 235.198 217.759 235.198L223.363 235.756Z" fill="#DFE2E8"/>
<path d="M218.039 236.314L211.035 237.429L211.595 254.997L209.914 271.17L213.837 275.631C213.837 275.631 221.681 260.852 223.082 251.65C224.483 242.448 223.643 235.756 223.643 235.756L218.039 236.314Z" fill="#D6D9DE"/>
<path d="M226.444 236.732L227.985 236.314C227.985 236.314 233.449 235.617 234.289 237.847C235.13 240.078 234.85 253.184 234.85 253.184C234.85 253.184 236.295 269.269 230.669 269.453C225.044 269.636 226.164 256.251 226.164 256.251L226.444 236.732Z" fill="#DFE2E8"/>
<path d="M226.241 233.658C230.246 233.658 233.492 230.426 233.492 226.441C233.492 222.455 230.246 219.224 226.241 219.224C222.236 219.224 218.99 222.455 218.99 226.441C218.99 230.426 222.236 233.658 226.241 233.658Z" fill="#ECC4AA"/>
<path d="M217.199 237.29L215.658 236.872C215.658 236.872 210.194 236.175 209.354 238.405C208.513 240.636 208.793 253.742 208.793 253.742C208.793 253.742 207.348 269.827 212.974 270.011C218.599 270.194 217.479 256.809 217.479 256.809L217.199 237.29Z" fill="#A1A1A1"/>
<path d="M222.052 236.373C220.497 235.98 218.733 237.634 218.112 240.067C217.851 241.036 217.827 242.053 218.041 243.033L217.373 245.799L217.324 245.797L212.051 258.163C210.826 261.039 210.955 264.34 212.519 267.048C213.449 268.659 214.67 269.742 216.104 268.636C218.483 266.802 220.036 256.298 220.746 250.264L222.386 244.13C223.045 243.37 223.511 242.465 223.745 241.489C224.366 239.056 223.608 236.766 222.052 236.373V236.373Z" fill="#D6A991"/>
<path d="M212.358 232.279C212.727 231.163 213.455 230.186 213.781 229.056C214.214 227.557 215.135 230.884 215.224 229.326C215.395 226.366 219.935 218.75 222.527 217.288C225.118 215.825 226.607 216.266 229.247 217.64C229.247 217.64 230.529 217.721 232.125 218.505C233.72 219.289 235.157 220.545 235.777 222.204C236.269 223.52 236.215 224.965 236.379 226.359C236.837 230.244 239.025 233.938 238.555 237.821C238.409 239.032 237.946 240.285 236.951 240.997C235.956 241.71 234.348 241.632 233.693 240.601C233.469 240.249 233.375 239.832 233.183 239.461C232.991 239.091 232.645 238.746 232.227 238.758C231.598 238.775 231.278 239.614 231.526 240.19C231.774 240.765 232.357 241.112 232.904 241.421C231.601 242.004 229.985 241.823 228.846 240.965C227.707 240.107 227.092 238.609 227.302 237.203C227.597 235.221 230.497 235.632 230.839 233.657C231.088 232.22 231.961 229.816 231.723 228.377C231.486 226.938 230.343 228.68 231.547 227.849C230.222 228.484 227.39 224.137 226.003 223.651C224.617 223.164 223.441 222.109 222.811 220.788C221.34 222.909 220.047 222.333 219.52 224.856C218.994 227.38 219.48 233.113 221.649 234.522C220.781 235.111 220.089 235.954 219.682 236.918C219.451 237.464 219.302 238.061 218.919 238.515C218.188 239.381 216.838 239.434 215.761 239.069C214.427 238.618 213.286 237.626 212.657 236.371C212.028 235.115 211.918 233.612 212.358 232.279L212.358 232.279Z" fill="#2F2E41"/>
<path d="M114 353.596C114 353.781 114.149 353.928 114.333 353.928H260.667C260.851 353.928 261 353.781 261 353.596C261 353.412 260.851 353.265 260.667 353.265H114.333C114.149 353.265 114 353.412 114 353.596Z" fill="#3F3D56"/>
<path d="M209.271 179.279H151.647C145.112 179.279 139.815 184.551 139.815 191.055V341.753C139.815 348.256 145.112 353.529 151.647 353.529H209.271C215.805 353.529 221.102 348.256 221.102 341.753V191.055C221.102 184.551 215.805 179.279 209.271 179.279H209.271Z" fill="white"/>
<path d="M209.27 353.807H151.647C144.968 353.807 139.535 348.4 139.535 341.753V191.055C139.535 184.408 144.968 179 151.647 179H209.27C215.949 179 221.382 184.408 221.382 191.055V341.753C221.382 348.4 215.949 353.807 209.27 353.807H209.27ZM151.647 179.558C145.277 179.558 140.095 184.715 140.095 191.055V341.753C140.095 348.092 145.277 353.25 151.647 353.25H209.27C215.64 353.25 220.822 348.092 220.822 341.753V191.055C220.822 184.715 215.64 179.558 209.27 179.558H151.647Z" fill="#3F3D56"/>
<path d="M135.054 205.37C134.548 205.37 134.136 205.779 134.136 206.283V213.586C134.136 214.089 134.548 214.499 135.054 214.499C135.559 214.499 135.971 214.089 135.971 213.586V206.283C135.971 205.779 135.559 205.37 135.054 205.37Z" fill="#3F3D56"/>
<path d="M213.444 203.388H190.283C189.3 203.388 188.501 202.593 188.501 201.615C188.501 200.638 189.3 199.842 190.283 199.842H213.444C214.427 199.842 215.226 200.638 215.226 201.615C215.226 202.593 214.427 203.388 213.444 203.388Z" fill="#E6E6E6"/>
<path d="M191.716 217.333H169.202C168.634 217.333 168.172 216.873 168.172 216.308C168.172 215.743 168.634 215.284 169.202 215.284H191.716C192.284 215.284 192.745 215.743 192.745 216.308C192.745 216.873 192.284 217.333 191.716 217.333Z" fill="#A1A1A1"/>
<path d="M135.944 222.389C145.986 222.389 154.127 214.457 154.127 204.673C154.127 194.889 145.986 186.958 135.944 186.958C125.902 186.958 117.761 194.889 117.761 204.673C117.761 214.457 125.902 222.389 135.944 222.389Z" fill="#8CE2EF"/>
<path d="M144.135 198C142.231 201.451 136.646 208.159 134.741 211.61C133.528 209.476 129.157 202.725 127.94 200.593C127.52 199.856 126.239 200.717 126.661 201.455C129.537 205.57 132.745 210.271 134.156 212.743C134.397 213.166 135.059 213.176 135.297 212.743C137.389 208.952 143.185 202.455 145.277 198.665C145.687 197.922 144.546 197.257 144.135 198Z" fill="white" stroke="white" stroke-width="2"/>
<path d="M159.894 183.087H147.041C146.993 183.087 146.954 183.126 146.954 183.174V184.663C146.954 184.711 146.993 184.75 147.041 184.75H159.894C159.942 184.75 159.981 184.711 159.981 184.663V183.174C159.981 183.126 159.942 183.087 159.894 183.087Z" fill="#E6E6E6"/>
<path d="M203.19 184.75C203.928 184.75 204.527 184.154 204.527 183.42C204.527 182.685 203.928 182.09 203.19 182.09C202.452 182.09 201.854 182.685 201.854 183.42C201.854 184.154 202.452 184.75 203.19 184.75Z" fill="#E6E6E6"/>
<path d="M206.865 184.75C207.603 184.75 208.201 184.154 208.201 183.42C208.201 182.685 207.603 182.09 206.865 182.09C206.127 182.09 205.529 182.685 205.529 183.42C205.529 184.154 206.127 184.75 206.865 184.75Z" fill="#E6E6E6"/>
<path d="M210.539 184.75C211.277 184.75 211.875 184.154 211.875 183.42C211.875 182.685 211.277 182.09 210.539 182.09C209.801 182.09 209.203 182.685 209.203 183.42C209.203 184.154 209.801 184.75 210.539 184.75Z" fill="#E6E6E6"/>
<path d="M151.507 222.817C151.507 223.001 151.655 223.149 151.84 223.149H209.077C209.262 223.149 209.411 223.001 209.411 222.817C209.411 222.633 209.262 222.485 209.077 222.485H151.84C151.655 222.485 151.507 222.633 151.507 222.817Z" fill="#3F3D56"/>
<path d="M203.589 248.898H169.24C168.672 248.898 168.21 248.438 168.21 247.873C168.21 247.308 168.672 246.849 169.24 246.849H203.589C204.156 246.849 204.618 247.308 204.618 247.873C204.618 248.438 204.156 248.898 203.589 248.898Z" fill="#A1A1A1"/>
<path d="M203.589 263.677H169.24C168.672 263.677 168.21 263.217 168.21 262.652C168.21 262.087 168.672 261.628 169.24 261.628H203.589C204.156 261.628 204.618 262.087 204.618 262.652C204.618 263.217 204.156 263.677 203.589 263.677Z" fill="#A1A1A1"/>
<path d="M203.589 278.456H169.24C168.672 278.456 168.21 277.996 168.21 277.431C168.21 276.866 168.672 276.407 169.24 276.407H203.589C204.156 276.407 204.618 276.866 204.618 277.431C204.618 277.996 204.156 278.456 203.589 278.456Z" fill="#A1A1A1"/>
<path d="M158.821 250.256C160.214 250.256 161.343 249.133 161.343 247.747C161.343 246.361 160.214 245.237 158.821 245.237C157.429 245.237 156.3 246.361 156.3 247.747C156.3 249.133 157.429 250.256 158.821 250.256Z" fill="#A1A1A1"/>
<path d="M158.541 251.929V251.372C160.627 251.372 162.324 249.683 162.324 247.607C162.324 245.532 160.627 243.843 158.541 243.843V243.285C160.936 243.285 162.884 245.224 162.884 247.607C162.884 249.991 160.936 251.929 158.541 251.929Z" fill="#3F3D56"/>
<path d="M158.821 265.035C160.214 265.035 161.343 263.912 161.343 262.526C161.343 261.14 160.214 260.016 158.821 260.016C157.429 260.016 156.3 261.14 156.3 262.526C156.3 263.912 157.429 265.035 158.821 265.035Z" fill="#A1A1A1"/>
<path d="M158.541 266.708V266.151C160.627 266.151 162.324 264.462 162.324 262.386C162.324 260.31 160.627 258.622 158.541 258.622V258.064C160.936 258.064 162.884 260.003 162.884 262.386C162.884 264.769 160.936 266.708 158.541 266.708Z" fill="#3F3D56"/>
<path d="M158.821 279.814C160.214 279.814 161.343 278.691 161.343 277.305C161.343 275.919 160.214 274.795 158.821 274.795C157.429 274.795 156.3 275.919 156.3 277.305C156.3 278.691 157.429 279.814 158.821 279.814Z" fill="#A1A1A1"/>
<path d="M158.541 281.487V280.93C160.627 280.93 162.324 279.241 162.324 277.165C162.324 275.089 160.627 273.401 158.541 273.401V272.843C160.936 272.843 162.884 274.782 162.884 277.165C162.884 279.548 160.936 281.487 158.541 281.487Z" fill="#3F3D56"/>
<path d="M221.591 235.815C223.147 235.422 224.91 237.076 225.531 239.51C225.792 240.478 225.816 241.495 225.602 242.475L226.27 245.242L226.319 245.239L231.592 257.606C232.817 260.481 232.688 263.782 231.124 266.49C230.194 268.101 228.973 269.184 227.539 268.079C225.161 266.244 223.607 255.74 222.897 249.706L221.257 243.572C220.598 242.813 220.132 241.907 219.898 240.931C219.277 238.499 220.035 236.208 221.591 235.815V235.815Z" fill="#ECC4AA"/>
<path d="M227.58 242.592L221.681 246.765L224.631 265.251L228.33 270.012L232.639 268.529L233.899 259.791L232.416 251.34L227.58 242.592Z" fill="#E3E6EB"/>
</g>
<path d="M128.157 440.276V430.178H124.107C121.839 430.178 119.823 429.8 118.059 429.044C116.295 428.288 114.819 427.262 113.631 425.966C112.443 424.67 111.525 423.176 110.877 421.484C110.265 419.756 109.959 417.956 109.959 416.084V414.896C109.959 413.024 110.265 411.242 110.877 409.55C111.525 407.822 112.443 406.31 113.631 405.014C114.819 403.718 116.295 402.692 118.059 401.936C119.823 401.144 121.839 400.748 124.107 400.748H143.223C145.491 400.748 147.507 401.144 149.271 401.936C151.035 402.692 152.511 403.718 153.699 405.014C154.887 406.31 155.787 407.822 156.399 409.55C157.047 411.242 157.371 413.024 157.371 414.896V416.084C157.371 417.956 157.047 419.756 156.399 421.484C155.787 423.176 154.887 424.67 153.699 425.966C152.511 427.262 151.035 428.288 149.271 429.044C147.507 429.8 145.491 430.178 143.223 430.178H139.173V440.276H154.401C155.229 440.276 155.931 440.402 156.507 440.654C157.083 440.906 157.551 441.248 157.911 441.68C158.271 442.076 158.523 442.544 158.667 443.084C158.847 443.588 158.937 444.11 158.937 444.65C158.937 445.766 158.577 446.774 157.857 447.674C157.173 448.574 156.021 449.024 154.401 449.024H112.929C111.309 449.024 110.139 448.574 109.419 447.674C108.735 446.774 108.393 445.766 108.393 444.65C108.393 444.11 108.465 443.588 108.609 443.084C108.789 442.544 109.059 442.076 109.419 441.68C109.779 441.248 110.247 440.906 110.823 440.654C111.399 440.402 112.101 440.276 112.929 440.276H128.157ZM146.139 414.788C146.139 413.276 145.617 412.034 144.573 411.062C143.529 410.054 142.107 409.55 140.307 409.55H127.023C125.223 409.55 123.801 410.054 122.757 411.062C121.713 412.034 121.191 413.276 121.191 414.788V416.192C121.191 417.704 121.713 418.964 122.757 419.972C123.801 420.944 125.223 421.43 127.023 421.43H140.307C142.107 421.43 143.529 420.944 144.573 419.972C145.617 418.964 146.139 417.704 146.139 416.192V414.788Z" fill="#3F778C"/>
<path d="M208.884 418.298C209.604 418.298 210.198 418.424 210.666 418.676C211.17 418.892 211.566 419.18 211.854 419.54C212.178 419.9 212.412 420.314 212.556 420.782C212.7 421.214 212.772 421.664 212.772 422.132C212.772 423.104 212.466 423.986 211.854 424.778C211.278 425.57 210.288 425.966 208.884 425.966H166.116C164.712 425.966 163.704 425.57 163.092 424.778C162.516 423.986 162.228 423.104 162.228 422.132C162.228 421.664 162.3 421.214 162.444 420.782C162.588 420.314 162.804 419.9 163.092 419.54C163.416 419.18 163.812 418.892 164.28 418.676C164.784 418.424 165.396 418.298 166.116 418.298H208.884ZM170.544 450.104C169.392 450.104 168.384 449.906 167.52 449.51C166.656 449.15 165.936 448.646 165.36 447.998C164.82 447.35 164.406 446.612 164.118 445.784C163.866 444.92 163.74 444.02 163.74 443.084V442.922C163.74 441.014 164.28 439.448 165.36 438.224C166.44 437 168.168 436.388 170.544 436.388H199.434V435.254C199.434 434.678 199.056 434.39 198.3 434.39H167.358C166.35 434.39 165.576 434.066 165.036 433.418C164.532 432.77 164.28 432.086 164.28 431.366C164.28 430.646 164.514 429.962 164.982 429.314C165.486 428.63 166.278 428.288 167.358 428.288H204.51C206.814 428.288 208.398 428.72 209.262 429.584C210.126 430.412 210.558 431.654 210.558 433.31V441.95H176.376C175.98 441.95 175.71 442.058 175.566 442.274C175.422 442.454 175.35 442.688 175.35 442.976C175.35 443.264 175.422 443.498 175.566 443.678C175.71 443.858 175.98 443.948 176.376 443.948H209.154C210.198 443.948 210.936 444.272 211.368 444.92C211.836 445.568 212.07 446.27 212.07 447.026C212.07 447.674 211.854 448.34 211.422 449.024C210.99 449.744 210.234 450.104 209.154 450.104H170.544ZM172.002 415.922C170.634 415.922 169.464 415.814 168.492 415.598C167.52 415.346 166.728 414.95 166.116 414.41C165.54 413.87 165.108 413.15 164.82 412.25C164.568 411.314 164.442 410.162 164.442 408.794V405.122C164.442 404.222 164.586 403.448 164.874 402.8C165.198 402.116 165.612 401.558 166.116 401.126C166.656 400.694 167.268 400.37 167.952 400.154C168.636 399.938 169.338 399.83 170.058 399.83C171.534 399.83 172.794 400.262 173.838 401.126C174.918 401.99 175.458 403.322 175.458 405.122V406.958C175.458 407.534 175.548 407.894 175.728 408.038C175.908 408.182 176.304 408.254 176.916 408.254H206.4C208.02 408.254 209.154 408.65 209.802 409.442C210.45 410.198 210.774 411.098 210.774 412.142C210.774 413.222 210.45 414.122 209.802 414.842C209.154 415.562 208.02 415.922 206.4 415.922H172.002Z" fill="#3F778C"/>
<path d="M258.777 401.126C259.533 401.126 260.181 401.27 260.721 401.558C261.261 401.846 261.693 402.206 262.017 402.638C262.341 403.07 262.575 403.556 262.719 404.096C262.863 404.636 262.935 405.158 262.935 405.662C262.935 406.166 262.863 406.688 262.719 407.228C262.575 407.768 262.323 408.254 261.963 408.686C261.639 409.118 261.207 409.478 260.667 409.766C260.163 410.018 259.533 410.144 258.777 410.144H231.453C230.877 410.144 230.481 410.252 230.265 410.468C230.049 410.648 229.941 411.026 229.941 411.602V419.432C229.941 420.008 230.049 420.404 230.265 420.62C230.481 420.836 230.877 420.944 231.453 420.944H259.641C260.397 420.944 261.045 421.088 261.585 421.376C262.125 421.664 262.557 422.024 262.881 422.456C263.205 422.888 263.439 423.374 263.583 423.914C263.763 424.418 263.853 424.922 263.853 425.426C263.853 425.93 263.763 426.452 263.583 426.992C263.439 427.532 263.187 428.018 262.827 428.45C262.503 428.882 262.071 429.242 261.531 429.53C261.027 429.782 260.397 429.908 259.641 429.908H246.843V440.276H262.071C262.899 440.276 263.601 440.402 264.177 440.654C264.753 440.906 265.221 441.248 265.581 441.68C265.941 442.076 266.193 442.544 266.337 443.084C266.517 443.588 266.607 444.11 266.607 444.65C266.607 445.766 266.247 446.774 265.527 447.674C264.843 448.574 263.691 449.024 262.071 449.024H220.599C218.979 449.024 217.809 448.574 217.089 447.674C216.405 446.774 216.063 445.766 216.063 444.65C216.063 444.11 216.135 443.588 216.279 443.084C216.459 442.544 216.729 442.076 217.089 441.68C217.449 441.248 217.917 440.906 218.493 440.654C219.069 440.402 219.771 440.276 220.599 440.276H235.827V429.908H227.619C225.999 429.908 224.631 429.764 223.515 429.476C222.399 429.152 221.499 428.666 220.815 428.018C220.167 427.334 219.681 426.452 219.357 425.372C219.069 424.292 218.925 422.96 218.925 421.376V409.658C218.925 408.11 219.069 406.796 219.357 405.716C219.681 404.636 220.167 403.754 220.815 403.07C221.499 402.386 222.399 401.9 223.515 401.612C224.631 401.288 225.999 401.126 227.619 401.126H258.777Z" fill="#3F778C"/>
<path d="M110.525 522.128C109.301 522.128 108.203 521.93 107.231 521.534C106.295 521.138 105.503 520.598 104.855 519.914C104.207 519.23 103.703 518.456 103.343 517.592C103.019 516.692 102.857 515.756 102.857 514.784V514.136C102.857 512.192 103.505 510.644 104.801 509.492C106.133 508.34 108.041 507.764 110.525 507.764H136.607V506.36C136.607 506.036 136.553 505.82 136.445 505.712C136.337 505.568 136.103 505.496 135.743 505.496H106.421C105.377 505.496 104.621 505.172 104.153 504.524C103.685 503.876 103.451 503.138 103.451 502.31C103.451 501.554 103.685 500.852 104.153 500.204C104.621 499.52 105.377 499.178 106.421 499.178H140.981C143.393 499.178 145.085 499.592 146.057 500.42C147.065 501.248 147.569 502.724 147.569 504.848V513.488H115.439C115.043 513.488 114.737 513.596 114.521 513.812C114.341 513.992 114.251 514.226 114.251 514.514V514.676C114.251 514.964 114.341 515.216 114.521 515.432C114.737 515.612 115.043 515.702 115.439 515.702H145.895C146.975 515.702 147.749 516.044 148.217 516.728C148.721 517.412 148.973 518.168 148.973 518.996C148.973 519.752 148.739 520.454 148.271 521.102C147.803 521.786 147.011 522.128 145.895 522.128H110.525ZM100.751 483.896C100.751 481.736 101.111 479.918 101.831 478.442C102.587 476.93 103.613 475.706 104.909 474.77C106.241 473.798 107.843 473.096 109.715 472.664C111.587 472.232 113.657 472.016 115.925 472.016C118.193 472.016 120.263 472.232 122.135 472.664C124.007 473.096 125.591 473.798 126.887 474.77C128.219 475.706 129.245 476.93 129.965 478.442C130.721 479.918 131.099 481.736 131.099 483.896V485.354C131.099 487.514 130.721 489.35 129.965 490.862C129.245 492.338 128.219 493.562 126.887 494.534C125.591 495.47 124.007 496.154 122.135 496.586C120.263 497.018 118.193 497.234 115.925 497.234C113.657 497.234 111.587 497.018 109.715 496.586C107.843 496.154 106.241 495.47 104.909 494.534C103.613 493.562 102.587 492.338 101.831 490.862C101.111 489.35 100.751 487.514 100.751 485.354V483.896ZM136.499 476.768C136.499 475.004 137.021 473.672 138.065 472.772C139.145 471.872 140.405 471.422 141.845 471.422C143.249 471.422 144.491 471.89 145.571 472.826C146.651 473.726 147.191 475.04 147.191 476.768V480.116H148.865C149.693 480.116 150.377 480.26 150.917 480.548C151.457 480.8 151.889 481.16 152.213 481.628C152.537 482.06 152.771 482.546 152.915 483.086C153.059 483.626 153.131 484.166 153.131 484.706C153.131 485.246 153.059 485.804 152.915 486.38C152.771 486.92 152.537 487.406 152.213 487.838C151.889 488.27 151.439 488.63 150.863 488.918C150.323 489.17 149.657 489.296 148.865 489.296H147.191V497.45H136.499V476.768ZM111.389 485.732C111.389 487.1 111.785 488.09 112.577 488.702C113.405 489.314 114.521 489.62 115.925 489.62C117.329 489.62 118.427 489.314 119.219 488.702C120.047 488.09 120.461 487.1 120.461 485.732V483.518C120.461 482.186 120.047 481.214 119.219 480.602C118.427 479.954 117.329 479.63 115.925 479.63C114.521 479.63 113.405 479.954 112.577 480.602C111.785 481.214 111.389 482.186 111.389 483.518V485.732Z" fill="#3F778C"/>
<path d="M169.598 471.206C171.434 471.206 172.802 471.674 173.702 472.61C174.638 473.51 175.106 474.824 175.106 476.552V477.2H181.802C182.63 477.2 183.314 477.344 183.854 477.632C184.43 477.884 184.898 478.244 185.258 478.712C185.618 479.144 185.87 479.63 186.014 480.17C186.158 480.71 186.23 481.25 186.23 481.79C186.23 482.33 186.14 482.87 185.96 483.41C185.816 483.95 185.564 484.436 185.204 484.868C184.88 485.3 184.43 485.66 183.854 485.948C183.278 486.2 182.594 486.326 181.802 486.326H174.89V489.62C174.89 490.88 174.854 492.086 174.782 493.238C174.71 494.39 174.602 495.524 174.458 496.64C176.366 497.252 178.076 498.098 179.588 499.178C181.136 500.222 182.414 501.626 183.422 503.39C184.466 505.154 185.222 507.314 185.69 509.87C186.158 512.426 186.284 515.504 186.068 519.104H176.078C176.474 515.576 176.312 512.75 175.592 510.626C174.908 508.502 173.738 506.918 172.082 505.874C170.714 509.15 168.95 511.886 166.79 514.082C164.63 516.242 162.182 517.898 159.446 519.05C158.87 519.302 158.258 519.428 157.61 519.428C156.962 519.464 156.332 519.392 155.72 519.212C155.108 519.068 154.55 518.816 154.046 518.456C153.542 518.096 153.146 517.646 152.858 517.106C152.354 516.134 152.228 515.09 152.48 513.974C152.732 512.858 153.398 511.976 154.478 511.328C156.134 510.356 157.592 509.222 158.852 507.926C160.112 506.63 161.156 505.118 161.984 503.39C162.848 501.626 163.478 499.592 163.874 497.288C164.306 494.984 164.522 492.338 164.522 489.35V486.326H157.286C156.458 486.326 155.756 486.2 155.18 485.948C154.64 485.66 154.172 485.3 153.776 484.868C153.416 484.436 153.146 483.95 152.966 483.41C152.822 482.87 152.75 482.33 152.75 481.79C152.75 481.25 152.822 480.71 152.966 480.17C153.146 479.63 153.416 479.144 153.776 478.712C154.136 478.244 154.604 477.884 155.18 477.632C155.756 477.344 156.458 477.2 157.286 477.2H164.09V476.552C164.09 474.824 164.54 473.51 165.44 472.61C166.376 471.674 167.762 471.206 169.598 471.206ZM190.226 476.66C190.226 474.932 190.766 473.636 191.846 472.772C192.926 471.872 194.168 471.422 195.572 471.422C196.256 471.422 196.922 471.548 197.57 471.8C198.218 472.016 198.776 472.34 199.244 472.772C199.748 473.204 200.144 473.744 200.432 474.392C200.756 475.04 200.918 475.796 200.918 476.66V490.322H202.7C203.528 490.322 204.212 490.466 204.752 490.754C205.292 491.042 205.724 491.42 206.048 491.888C206.372 492.32 206.606 492.824 206.75 493.4C206.894 493.94 206.966 494.48 206.966 495.02C206.966 495.56 206.894 496.118 206.75 496.694C206.606 497.234 206.372 497.738 206.048 498.206C205.724 498.638 205.274 498.998 204.698 499.286C204.158 499.574 203.492 499.718 202.7 499.718H200.918V522.128H190.226V476.66Z" fill="#3F778C"/>
<path d="M211.229 511.544C212.777 511.292 214.199 510.896 215.495 510.356C216.791 509.78 217.907 508.934 218.843 507.818C219.779 506.702 220.499 505.226 221.003 503.39C221.543 501.554 221.813 499.232 221.813 496.424V483.896C221.813 483.5 221.687 483.176 221.435 482.924C221.219 482.672 220.895 482.546 220.463 482.546H212.201C211.373 482.546 210.671 482.42 210.095 482.168C209.555 481.88 209.087 481.52 208.691 481.088C208.331 480.656 208.061 480.17 207.881 479.63C207.737 479.09 207.665 478.55 207.665 478.01C207.665 477.47 207.737 476.93 207.881 476.39C208.061 475.85 208.331 475.364 208.691 474.932C209.051 474.5 209.519 474.158 210.095 473.906C210.671 473.618 211.373 473.474 212.201 473.474H223.595C225.107 473.474 226.385 473.6 227.429 473.852C228.473 474.104 229.319 474.518 229.967 475.094C230.615 475.67 231.065 476.426 231.317 477.362C231.605 478.298 231.749 479.45 231.749 480.818V491.402H235.529V476.012C235.529 474.5 235.979 473.366 236.879 472.61C237.779 471.818 238.859 471.422 240.119 471.422C240.731 471.422 241.325 471.53 241.901 471.746C242.477 471.926 242.981 472.214 243.413 472.61C243.881 473.006 244.241 473.492 244.493 474.068C244.781 474.608 244.925 475.256 244.925 476.012V522.128H235.529V500.15H231.587C231.263 503.786 230.525 506.864 229.373 509.384C228.257 511.868 226.853 513.902 225.161 515.486C223.469 517.07 221.543 518.24 219.383 518.996C217.223 519.788 214.991 520.274 212.687 520.454C211.247 520.562 209.969 520.274 208.853 519.59C207.773 518.942 207.197 517.862 207.125 516.35C207.053 515.09 207.341 514.046 207.989 513.218C208.673 512.354 209.753 511.796 211.229 511.544ZM247.571 476.012C247.571 474.5 248.057 473.366 249.029 472.61C250.001 471.818 251.117 471.422 252.377 471.422C252.989 471.422 253.583 471.53 254.159 471.746C254.735 471.926 255.239 472.214 255.671 472.61C256.139 473.006 256.499 473.492 256.751 474.068C257.039 474.608 257.183 475.256 257.183 476.012V522.128H247.571V476.012Z" fill="#3F778C"/>
<path d="M262.742 505.712V477.146C262.742 476.282 262.886 475.526 263.174 474.878C263.498 474.194 263.912 473.636 264.416 473.204C264.92 472.736 265.496 472.394 266.144 472.178C266.828 471.926 267.53 471.8 268.25 471.8C268.934 471.8 269.6 471.926 270.248 472.178C270.932 472.394 271.526 472.736 272.03 473.204C272.57 473.636 272.984 474.194 273.272 474.878C273.596 475.526 273.758 476.282 273.758 477.146V505.712H262.742ZM262.472 513.704C262.472 512.012 262.976 510.68 263.984 509.708C264.992 508.736 266.414 508.25 268.25 508.25C270.086 508.25 271.508 508.754 272.516 509.762C273.524 510.734 274.028 512.048 274.028 513.704C274.028 515.36 273.524 516.692 272.516 517.7C271.508 518.672 270.086 519.158 268.25 519.158C266.414 519.158 264.992 518.672 263.984 517.7C262.976 516.728 262.472 515.396 262.472 513.704Z" fill="#3F778C"/>
<defs>
<clipPath id="clip0_4_44">
<rect width="375" height="175" fill="white" transform="translate(0 179)"/>
</clipPath>
</defs>
</svg>
